{
  "accessors": [
    {
      "bufferView": 2,
      "componentType": 5126,
      "count": 179,
      "max": [
        0.7737410068511963,
        2.010185956954956,
        6.721001148223877
      ],
      "min": [
        -2.374587059020996,
        -0.7263929843902588,
        0.18743200600147247
      ],
      "type": "VEC3"
    },
    {
      "bufferView": 2,
      "byteOffset": 2148,
      "componentType": 5126,
      "count": 179,
      "max": [
        1.0,
        1.0,
        0.7548702955245972
      ],
      "min": [
        -0.2591126561164856,
        -0.7548702955245972,
        -0.7548702955245972
      ],
      "type": "VEC3"
    },
    {
      "bufferView": 1,
      "componentType": 5126,
      "count": 179,
      "max": [
        0.9987199902534485,
        0.9913280010223389
      ],
      "min": [
        0.007926000282168388,
        0.10382799804210663
      ],
      "type": "VEC2"
    },
    {
      "bufferView": 0,
      "componentType": 5125,
      "count": 708,
      "type": "SCALAR"
    },
    {
      "bufferView": 2,
      "byteOffset": 4296,
      "componentType": 5126,
      "count": 6791,
      "max": [
        1.333847999572754,
        2.1199769973754883,
        8.483373641967773
      ],
      "min": [
        -2.4843780994415283,
        -2.259053945541382,
        0.005700999870896339
      ],
      "type": "VEC3"
    },
    {
      "bufferView": 2,
      "byteOffset": 85788,
      "componentType": 5126,
      "count": 6791,
      "max": [
        1.0,
        1.0,
        1.0
      ],
      "min": [
        -1.0,
        -1.0,
        -1.0
      ],
      "type": "VEC3"
    },
    {
      "bufferView": 1,
      "byteOffset": 1432,
      "componentType": 5126,
      "count": 6791,
      "max": [
        1.0005040168762207,
        0.9985470175743103
      ],
      "min": [
        0.0003150000120513141,
        0.00042299999040551484
      ],
      "type": "VEC2"
    },
    {
      "bufferView": 0,
      "byteOffset": 2832,
      "componentType": 5125,
      "count": 18876,
      "type": "SCALAR"
    },
    {
      "bufferView": 2,
      "byteOffset": 167280,
      "componentType": 5126,
      "count": 6858,
      "max": [
        2.607534885406494,
        2.100037097930908,
        8.463373184204102
      ],
      "min": [
        -2.464437961578369,
        -2.8575730323791504,
        0.025700999423861504
      ],
      "type": "VEC3"
    },
    {
      "bufferView": 2,
      "byteOffset": 249576,
      "componentType": 5126,
      "count": 6858,
      "max": [
        1.0,
        1.0,
        1.0
      ],
      "min": [
        -1.0,
        -1.0,
        -1.0
      ],
      "type": "VEC3"
    },
    {
      "bufferView": 1,
      "byteOffset": 55760,
      "componentType": 5126,
      "count": 6858,
      "max": [
        1.0005040168762207,
        0.9996079802513123
      ],
      "min": [
        0.0003150000120513141,
        0.00042299999040551484
      ],
      "type": "VEC2"
    },
    {
      "bufferView": 0,
      "byteOffset": 78336,
      "componentType": 5125,
      "count": 19059,
      "type": "SCALAR"
    }
  ],
  "asset": {
    "extras": {
      "author": "Mikita_Hubanau (https://sketchfab.com/Mikita_Hubanau)",
      "license": "CC-BY-NC-4.0 (http://creativecommons.org/licenses/by-nc/4.0/)",
      "source": "https://sketchfab.com/3d-models/cyberpunk-atm-3be4c22c3c7e4c80ab4fda3ce0b2373b",
      "title": "Cyberpunk ATM"
    },
    "generator": "Sketchfab-15.49.0",
    "version": "2.0"
  },
  "bufferViews": [
    {
      "buffer": 0,
      "byteLength": 154572,
      "name": "floatBufferViews",
      "target": 34963
    },
    {
      "buffer": 0,
      "byteLength": 110624,
      "byteOffset": 154572,
      "byteStride": 8,
      "name": "floatBufferViews",
      "target": 34962
    },
    {
      "buffer": 0,
      "byteLength": 331872,
      "byteOffset": 265196,
      "byteStride": 12,
      "name": "floatBufferViews",
      "target": 34962
    }
  ],
  "buffers": [
    {
      "byteLength": 597068,
      "uri": "scene.bin"
    }
  ],
  "extensionsUsed": [
    "KHR_materials_unlit",
    "KHR_materials_emissive_strength"
  ],
  "images": [
    {
      "uri": "textures/BLUE_baseColor.png"
    }
  ],
  "materials": [
    {
      "doubleSided": true,
      "emissiveFactor": [
        1.0,
        1.0,
        1.0
      ],
      "emissiveTexture": {
        "index": 0
      },
      "extensions": {
        "KHR_materials_emissive_strength": {
          "emissiveStrength": 1.259744598299478
        },
        "KHR_materials_unlit": {}
      },
      "name": "BLUE",
      "pbrMetallicRoughness": {
        "baseColorTexture": {
          "index": 0
        },
        "metallicFactor": 0.0
      }
    },
    {
      "extensions": {
        "KHR_materials_unlit": {}
      },
      "name": "GRAN",
      "pbrMetallicRoughness": {
        "baseColorFactor": [
          0.006498719331053603,
          0.007726100576177697,
          0.007726100576177697,
          1.0
        ],
        "metallicFactor": 0.0
      }
    },
    {
      "extensions": {
        "KHR_materials_unlit": {}
      },
      "name": "MAIN",
      "pbrMetallicRoughness": {
        "baseColorTexture": {
          "index": 0
        },
        "metallicFactor": 0.0
      }
    }
  ],
  "meshes": [
    {
      "name": "Object_0",
      "primitives": [
        {
          "attributes": {
            "NORMAL": 1,
            "POSITION": 0,
            "TEXCOORD_0": 2
          },
          "indices": 3,
          "material": 0,
          "mode": 4
        }
      ]
    },
    {
      "name": "Object_1",
      "primitives": [
        {
          "attributes": {
            "NORMAL": 5,
            "POSITION": 4,
            "TEXCOORD_0": 6
          },
          "indices": 7,
          "material": 1,
          "mode": 4
        }
      ]
    },
    {
      "name": "Object_2",
      "primitives": [
        {
          "attributes": {
            "NORMAL": 9,
            "POSITION": 8,
            "TEXCOORD_0": 10
          },
          "indices": 11,
          "material": 2,
          "mode": 4
        }
      ]
    }
  ],
  "nodes": [
    {
      "children": [
        1
      ],
      "matrix": [
        1.0,
        0.0,
        0.0,
        0.0,
        0.0,
        2.220446049250313e-16,
        -1.0,
        0.0,
        0.0,
        1.0,
        2.220446049250313e-16,
        0.0,
        0.0,
        0.0,
        0.0,
        1.0
      ],
      "name": "Sketchfab_model"
    },
    {
      "children": [
        2,
        3,
        4
      ],
      "name": "ATM_TEXTUR.mtl.obj.cleaner.materialmerger.gles"
    },
    {
      "mesh": 0,
      "name": "Object_2"
    },
    {
      "mesh": 1,
      "name": "Object_3"
    },
    {
      "mesh": 2,
      "name": "Object_4"
    }
  ],
  "samplers": [
    {
      "magFilter": 9729,
      "minFilter": 9987,
      "wrapS": 10497,
      "wrapT": 10497
    }
  ],
  "scene": 0,
  "scenes": [
    {
      "name": "Sketchfab_Scene",
      "nodes": [
        0
      ]
    }
  ],
  "textures": [
    {
      "sampler": 0,
      "source": 0
    }
  ]
}
